<svg width="256" height="256" viewBox="0 0 256 256" fill="none" xmlns="http://www.w3.org/2000/svg">
  <style>
    /* Цвет для светлой темы */
    path {
      fill: #000000; /* Чёрный по умолчанию */
    }

    /* Цвет для тёмной темы */
    @media (prefers-color-scheme: dark) {
      path {
        fill: #ffffff; /*  белый для тёмной темы */
      }
    }
  </style>

  <g clip-path="url(#clip0_42_980)">
    <path d="M30 0V10.3704H10.3704V30H0V0H30Z"/>
    <path d="M256 30V0H226V10.3704H245.63V30H256Z"/>
    <path d="M226 256H256V226H245.63V245.63H226V256Z"/>
    <path d="M3.93404e-06 226L0 256H30V245.63H10.3704V226H3.93404e-06Z"/>
    <path d="M82.819 113.677H172.111V58.8263H82.819V113.677ZM77.7166 196.59H177.213V134.086H77.7166V196.59ZM75.1655 217L54.7559 196.59V138.934L74.4001 123.626L59.8583 112.656V58.8263L80.2678 38.4168H174.662L195.071 58.8263V112.656L180.53 123.626L200.174 138.934V196.59L179.764 217H75.1655Z"/>
  </g>

  <defs>
    <clipPath id="clip0_42_980">
      <rect width="256" height="256" fill="white"/>
    </clipPath>
  </defs>
</svg>
