<svg width="16" height="12" viewBox="0 0 16 12" fill="none" xmlns="http://www.w3.org/2000/svg">
<path d="M8 0.9375C4.08669 0.9375 0.125 1.90387 0.125 3.75V8.25C0.125 10.0961 4.08669 11.0625 8 11.0625C11.9133 11.0625 15.875 10.0961 15.875 8.25V3.75C15.875 1.90387 11.9133 0.9375 8 0.9375ZM8 2.0625C12.1872 2.0625 14.75 3.15488 14.75 3.75C14.75 4.27087 12.7874 5.172 9.49175 5.38912C8.99517 5.4216 8.49765 5.43774 8 5.4375C3.81275 5.4375 1.25 4.34512 1.25 3.75C1.25 3.15488 3.81275 2.0625 8 2.0625ZM1.25 5.27269C1.28375 5.29237 1.32538 5.30869 1.35969 5.32781C1.54441 5.42981 1.73485 5.52109 1.93006 5.60119C2.12469 5.68219 2.32719 5.75981 2.54544 5.83069C3.00275 5.97975 3.51575 6.10069 4.0535 6.20419C4.21606 6.23513 4.38369 6.26044 4.55131 6.28688C5.02944 6.36394 5.52219 6.42581 6.03237 6.46912C6.67925 6.52425 7.33681 6.5625 8 6.5625C8.66375 6.5625 9.32131 6.52425 9.96762 6.46912C10.4634 6.42704 10.9575 6.36625 11.4487 6.28688C11.6163 6.26044 11.7839 6.23513 11.9465 6.20419C12.4843 6.10069 12.9973 5.97919 13.4546 5.83069C13.7212 5.74323 13.9831 5.64203 14.2392 5.5275C14.3756 5.46642 14.5094 5.3998 14.6403 5.32781C14.6746 5.30869 14.7168 5.29237 14.75 5.27269V8.25C14.75 8.84512 12.1872 9.9375 8 9.9375C3.81275 9.9375 1.25 8.84512 1.25 8.25V5.27269Z" fill="white"/>
</svg>
